# xmcd
#
# Track frame offsets:
#	180
#	10669
#	29769
#	41190
#	58665
#	70966
#	95678
#	111408
#	122340
#	139442
#
# Disc length: 2161 seconds
#
# Revision: 0
# Processed by: cddbd v1.5.1PL0 Copyright (c) Steve Scherf et al.
# Submitted via: dBpowerAMP V4.0
#
DISCID=94086f0a
DTITLE=Alexandru Andries - Ultima Repetitie
DYEAR=1900
DGENRE=Blues
TTITLE0=Blues Cadentat
TTITLE1=Blues Capabil
TTITLE2=Blues Canin
TTITLE3=Blues Cabernet de Cabinet
TTITLE4=Blues Capricios
TTITLE5=Blues Kaki
TTITLE6=Blues Catodic
TTITLE7=Blues Categoric #2
TTITLE8=Starea Vremii
TTITLE9=Prea Aproape
EXTD=Copyright 1995 Alexandru Andries
EXTT0=
EXTT1=
EXTT2=
EXTT3=
EXTT4=
EXTT5=
EXTT6=
EXTT7=
EXTT8=
EXTT9=
PLAYORDER=
